<svg xmlns="http://www.w3.org/2000/svg" xmlns:xlink="http://www.w3.org/1999/xlink" width="2500" zoomAndPan="magnify" viewBox="0 0 1874.88 374.999991" height="500" preserveAspectRatio="xMidYMid meet" version="1.0"><defs><g/><clipPath id="fb0398c19a"><path d="M 816 134 L 1874.761719 134 L 1874.761719 374.988281 L 816 374.988281 Z M 816 134 " clip-rule="nonzero"/></clipPath></defs><path fill="#000000" d="M 116.722656 252.976562 L 116.722656 241.839844 L 113.753906 241.839844 C 113.753906 241.839844 113.753906 237.277344 113.753906 235.746094 C 113.753906 234.570312 115.769531 233.421875 116.722656 232.949219 L 116.722656 222.984375 L 113.753906 222.984375 C 113.753906 222.984375 113.753906 218.417969 113.753906 216.886719 C 113.753906 215.714844 115.769531 214.566406 116.722656 214.089844 L 116.722656 207.066406 L 108.652344 207.066406 L 108.652344 160.824219 L 113.753906 160.824219 L 113.753906 150.90625 L 110.859375 150.90625 C 110.859375 150.90625 110.859375 147.03125 110.859375 145.726562 C 110.859375 144.453125 113.609375 143.238281 113.753906 143.171875 L 113.753906 135.367188 L 106.886719 135.367188 L 106.886719 101.238281 L 110.746094 101.238281 L 110.746094 90.953125 L 108.292969 90.953125 C 108.292969 90.953125 108.292969 87.671875 108.292969 86.566406 C 108.292969 85.488281 110.632812 84.457031 110.746094 84.40625 L 110.746094 79.921875 L 106.183594 79.921875 L 106.183594 58.457031 C 107.007812 57.09375 112.128906 47.664062 102.015625 39.617188 L 101.398438 39.226562 C 99.21875 37.871094 94.695312 35.039062 94.695312 31.808594 L 94.695312 18.761719 L 93.476562 18.761719 L 93.476562 31.808594 C 93.476562 35.105469 88.710938 38.046875 86.679688 39.304688 L 86.121094 39.660156 C 76.050781 47.675781 81.210938 57.097656 82.042969 58.464844 L 82.042969 79.929688 L 77.449219 79.929688 L 77.449219 84.421875 C 77.457031 84.421875 77.507812 84.398438 77.507812 84.398438 L 77.507812 84.394531 L 77.511719 84.398438 L 77.515625 84.394531 C 77.515625 84.394531 80 85.464844 80 86.574219 C 80 87.679688 80 90.960938 80 90.960938 L 77.449219 90.960938 L 77.449219 101.246094 L 81.300781 101.246094 L 81.300781 135.375 L 74.433594 135.375 L 74.433594 143.195312 C 74.445312 143.195312 74.507812 143.160156 74.507812 143.160156 L 74.511719 143.160156 C 74.511719 143.160156 77.449219 144.425781 77.449219 145.734375 C 77.449219 147.035156 77.449219 150.914062 77.449219 150.914062 L 74.429688 150.914062 L 74.429688 160.832031 L 78.984375 160.832031 L 78.984375 206.464844 L 70.914062 206.464844 L 70.914062 213.863281 C 70.914062 213.863281 70.957031 213.882812 70.972656 213.890625 L 70.972656 213.863281 C 70.972656 213.863281 74.433594 215.355469 74.433594 216.898438 C 74.433594 218.429688 74.433594 222.996094 74.433594 222.996094 L 70.914062 222.996094 L 70.914062 232.734375 C 70.914062 232.734375 70.957031 232.75 70.972656 232.753906 L 70.972656 232.734375 C 70.972656 232.734375 74.433594 234.222656 74.433594 235.761719 C 74.433594 237.296875 74.433594 241.859375 74.433594 241.859375 L 70.914062 241.859375 L 70.914062 253.605469 L 71.523438 253.605469 C 75.292969 253.605469 76.953125 257.664062 77.191406 258.308594 L 77.191406 356.238281 L 110.441406 356.238281 L 110.480469 258.070312 C 110.679688 257.554688 112.492188 252.976562 116.722656 252.976562 Z M 99.976562 71.207031 C 99.976562 70.101562 102.464844 69.027344 102.464844 69.027344 C 102.464844 69.027344 104.957031 70.101562 104.957031 71.207031 C 104.957031 72.3125 104.957031 77.722656 104.957031 77.722656 L 99.976562 77.722656 C 99.976562 77.726562 99.976562 72.3125 99.976562 71.207031 Z M 91.65625 71.207031 C 91.65625 70.101562 94.140625 69.027344 94.140625 69.027344 C 94.140625 69.027344 96.640625 70.101562 96.640625 71.207031 C 96.640625 72.3125 96.640625 77.722656 96.640625 77.722656 L 91.65625 77.722656 C 91.65625 77.726562 91.65625 72.3125 91.65625 71.207031 Z M 91.65625 86.570312 C 91.65625 85.460938 94.140625 84.390625 94.140625 84.390625 C 94.140625 84.390625 96.640625 85.460938 96.640625 86.570312 C 96.640625 87.675781 96.640625 90.957031 96.640625 90.957031 L 91.65625 90.957031 C 91.65625 90.957031 91.65625 87.675781 91.65625 86.570312 Z M 91.210938 145.726562 C 91.210938 144.417969 94.144531 143.152344 94.144531 143.152344 C 94.144531 143.152344 97.09375 144.417969 97.09375 145.726562 C 97.09375 147.03125 97.09375 150.90625 97.09375 150.90625 L 91.210938 150.90625 C 91.210938 150.90625 91.210938 147.03125 91.210938 145.726562 Z M 85.992188 241.839844 L 79.070312 241.839844 C 79.070312 241.839844 79.070312 237.277344 79.070312 235.746094 C 79.070312 234.210938 82.53125 232.714844 82.53125 232.714844 C 82.53125 232.714844 85.992188 234.203125 85.992188 235.746094 C 85.992188 237.277344 85.992188 241.839844 85.992188 241.839844 Z M 85.992188 222.984375 L 79.070312 222.984375 C 79.070312 222.984375 79.070312 218.417969 79.070312 216.886719 C 79.070312 215.351562 82.53125 213.851562 82.53125 213.851562 C 82.53125 213.851562 85.992188 215.347656 85.992188 216.886719 C 85.992188 218.417969 85.992188 222.984375 85.992188 222.984375 Z M 87.265625 150.90625 L 81.386719 150.90625 C 81.386719 150.90625 81.386719 147.03125 81.386719 145.726562 C 81.386719 144.417969 84.328125 143.152344 84.328125 143.152344 C 84.328125 143.152344 87.265625 144.417969 87.265625 145.726562 C 87.265625 147.03125 87.265625 150.90625 87.265625 150.90625 Z M 88.3125 90.957031 L 83.335938 90.957031 C 83.335938 90.957031 83.335938 87.675781 83.335938 86.570312 C 83.335938 85.460938 85.828125 84.390625 85.828125 84.390625 C 85.828125 84.390625 88.3125 85.460938 88.3125 86.570312 C 88.3125 87.675781 88.3125 90.957031 88.3125 90.957031 Z M 88.3125 77.726562 L 83.335938 77.726562 C 83.335938 77.726562 83.335938 72.316406 83.335938 71.210938 C 83.335938 70.105469 85.828125 69.03125 85.828125 69.03125 C 85.828125 69.03125 88.3125 70.105469 88.3125 71.210938 C 88.3125 72.316406 88.3125 77.726562 88.3125 77.726562 Z M 97.554688 241.839844 L 90.632812 241.839844 C 90.632812 241.839844 90.632812 237.277344 90.632812 235.746094 C 90.632812 234.210938 94.09375 232.714844 94.09375 232.714844 C 94.09375 232.714844 97.554688 234.203125 97.554688 235.746094 C 97.554688 237.277344 97.554688 241.839844 97.554688 241.839844 Z M 97.554688 222.984375 L 90.632812 222.984375 C 90.632812 222.984375 90.632812 218.417969 90.632812 216.886719 C 90.632812 215.351562 94.09375 213.851562 94.09375 213.851562 C 94.09375 213.851562 97.554688 215.347656 97.554688 216.886719 C 97.554688 218.417969 97.554688 222.984375 97.554688 222.984375 Z M 99.976562 86.570312 C 99.976562 85.460938 102.464844 84.390625 102.464844 84.390625 C 102.464844 84.390625 104.957031 85.460938 104.957031 86.570312 C 104.957031 87.675781 104.957031 90.957031 104.957031 90.957031 L 99.976562 90.957031 C 99.976562 90.957031 99.976562 87.675781 99.976562 86.570312 Z M 101.035156 145.726562 C 101.035156 144.417969 103.96875 143.152344 103.96875 143.152344 C 103.96875 143.152344 106.914062 144.417969 106.914062 145.726562 C 106.914062 147.03125 106.914062 150.90625 106.914062 150.90625 L 101.035156 150.90625 C 101.035156 150.90625 101.035156 147.03125 101.035156 145.726562 Z M 109.113281 241.839844 L 102.191406 241.839844 C 102.191406 241.839844 102.191406 237.277344 102.191406 235.746094 C 102.191406 234.210938 105.652344 232.714844 105.652344 232.714844 C 105.652344 232.714844 109.113281 234.203125 109.113281 235.746094 C 109.113281 237.277344 109.113281 241.839844 109.113281 241.839844 Z M 109.113281 222.984375 L 102.191406 222.984375 C 102.191406 222.984375 102.191406 218.417969 102.191406 216.886719 C 102.191406 215.351562 105.652344 213.851562 105.652344 213.851562 C 105.652344 213.851562 109.113281 215.347656 109.113281 216.886719 C 109.113281 218.417969 109.113281 222.984375 109.113281 222.984375 Z M 109.113281 222.984375 " fill-opacity="1" fill-rule="nonzero"/><path fill="#000000" d="M 142.308594 173.214844 L 142.308594 145.316406 L 145.476562 145.316406 L 145.476562 136.90625 L 143.46875 136.90625 C 143.46875 136.90625 143.46875 134.21875 143.46875 133.316406 C 143.46875 132.433594 145.382812 131.589844 145.476562 131.546875 L 145.476562 127.878906 L 141.738281 127.878906 L 141.738281 110.332031 C 142.414062 109.214844 146.597656 101.507812 138.335938 94.925781 L 137.824219 94.609375 C 136.042969 93.5 132.34375 91.183594 132.34375 88.539062 L 132.34375 77.871094 L 131.347656 77.871094 L 131.347656 88.539062 C 131.347656 91.238281 127.445312 93.640625 125.785156 94.667969 L 125.332031 94.957031 C 117.097656 101.511719 121.320312 109.21875 122.003906 110.335938 L 122.003906 127.882812 L 118.238281 127.882812 L 118.238281 131.558594 C 118.246094 131.558594 118.285156 131.539062 118.285156 131.539062 L 118.285156 131.535156 L 118.292969 131.535156 C 118.292969 131.535156 120.328125 132.410156 120.328125 133.316406 C 120.328125 134.222656 120.328125 136.90625 120.328125 136.90625 L 118.238281 136.90625 L 118.238281 145.316406 L 121.394531 145.316406 L 121.394531 173.214844 M 136.660156 120.753906 C 136.660156 119.851562 138.695312 118.972656 138.695312 118.972656 C 138.695312 118.972656 140.726562 119.847656 140.726562 120.753906 C 140.726562 121.65625 140.726562 126.082031 140.726562 126.082031 L 136.660156 126.082031 C 136.660156 126.082031 136.660156 121.65625 136.660156 120.753906 Z M 129.855469 120.753906 C 129.855469 119.851562 131.898438 118.972656 131.898438 118.972656 C 131.898438 118.972656 133.933594 119.847656 133.933594 120.753906 C 133.933594 121.65625 133.933594 126.082031 133.933594 126.082031 L 129.855469 126.082031 C 129.855469 126.082031 129.855469 121.65625 129.855469 120.753906 Z M 129.855469 133.316406 C 129.855469 132.414062 131.898438 131.535156 131.898438 131.535156 C 131.898438 131.535156 133.933594 132.410156 133.933594 133.316406 C 133.933594 134.222656 133.933594 136.90625 133.933594 136.90625 L 129.855469 136.90625 C 129.855469 136.90625 129.855469 134.21875 129.855469 133.316406 Z M 127.125 136.90625 L 123.054688 136.90625 C 123.054688 136.90625 123.054688 134.21875 123.054688 133.316406 C 123.054688 132.414062 125.09375 131.535156 125.09375 131.535156 C 125.09375 131.535156 127.125 132.410156 127.125 133.316406 C 127.125 134.222656 127.125 136.90625 127.125 136.90625 Z M 127.125 126.082031 L 123.054688 126.082031 C 123.054688 126.082031 123.054688 121.65625 123.054688 120.753906 C 123.054688 119.851562 125.09375 118.972656 125.09375 118.972656 C 125.09375 118.972656 127.125 119.847656 127.125 120.753906 C 127.125 121.65625 127.125 126.082031 127.125 126.082031 Z M 136.660156 133.316406 C 136.660156 132.414062 138.695312 131.535156 138.695312 131.535156 C 138.695312 131.535156 140.726562 132.410156 140.726562 133.316406 C 140.726562 134.222656 140.726562 136.90625 140.726562 136.90625 L 136.660156 136.90625 C 136.660156 136.90625 136.660156 134.21875 136.660156 133.316406 Z M 136.660156 133.316406 " fill-opacity="1" fill-rule="nonzero"/><path fill="#000000" d="M 264.492188 258.070312 L 264.535156 356.238281 L 297.785156 356.238281 L 297.785156 258.292969 C 298.015625 257.648438 299.683594 253.585938 303.453125 253.585938 L 304.058594 253.585938 L 304.058594 241.839844 L 300.542969 241.839844 C 300.542969 241.839844 300.542969 237.277344 300.542969 235.746094 C 300.542969 234.210938 304.003906 232.714844 304.003906 232.714844 L 304.003906 232.738281 C 304.019531 232.730469 304.058594 232.714844 304.058594 232.714844 L 304.058594 222.976562 L 300.542969 222.976562 C 300.542969 222.976562 300.542969 218.410156 300.542969 216.878906 C 300.542969 215.347656 304.003906 213.847656 304.003906 213.847656 L 304.003906 213.871094 C 304.019531 213.863281 304.058594 213.847656 304.058594 213.847656 L 304.058594 206.449219 L 295.992188 206.449219 L 295.992188 160.816406 L 300.546875 160.816406 L 300.546875 150.898438 L 297.535156 150.898438 C 297.535156 150.898438 297.535156 147.023438 297.535156 145.722656 C 297.535156 144.410156 300.46875 143.144531 300.46875 143.144531 L 300.472656 143.144531 C 300.472656 143.144531 300.539062 143.179688 300.546875 143.179688 L 300.546875 135.359375 L 293.675781 135.359375 L 293.675781 101.230469 L 297.535156 101.230469 L 297.535156 90.945312 L 294.980469 90.945312 C 294.980469 90.945312 294.980469 87.664062 294.980469 86.558594 C 294.980469 85.453125 297.464844 84.378906 297.464844 84.378906 L 297.46875 84.382812 L 297.472656 84.378906 L 297.472656 84.382812 C 297.472656 84.382812 297.519531 84.410156 297.535156 84.410156 L 297.535156 79.914062 L 292.933594 79.914062 L 292.933594 58.449219 C 293.765625 57.085938 298.925781 47.660156 288.859375 39.644531 L 288.300781 39.289062 C 286.269531 38.03125 281.503906 35.09375 281.503906 31.792969 L 281.503906 18.761719 L 280.285156 18.761719 L 280.285156 31.808594 C 280.285156 35.039062 275.765625 37.871094 273.585938 39.226562 L 272.96875 39.617188 C 262.855469 47.664062 267.976562 57.09375 268.800781 58.457031 L 268.800781 79.921875 L 264.238281 79.921875 L 264.238281 84.40625 C 264.351562 84.457031 266.691406 85.488281 266.691406 86.566406 C 266.691406 87.671875 266.691406 90.953125 266.691406 90.953125 L 264.238281 90.953125 L 264.238281 101.238281 L 268.097656 101.238281 L 268.097656 135.367188 L 261.230469 135.367188 L 261.230469 143.171875 C 261.375 143.238281 264.125 144.453125 264.125 145.726562 C 264.125 147.03125 264.125 150.90625 264.125 150.90625 L 261.230469 150.90625 L 261.230469 160.824219 L 266.332031 160.824219 L 266.332031 207.066406 L 258.261719 207.066406 L 258.261719 214.089844 C 259.214844 214.566406 261.230469 215.714844 261.230469 216.886719 C 261.230469 218.417969 261.230469 222.984375 261.230469 222.984375 L 258.257812 222.984375 L 258.257812 232.949219 C 259.210938 233.421875 261.226562 234.570312 261.226562 235.746094 C 261.226562 237.277344 261.226562 241.839844 261.226562 241.839844 L 258.257812 241.839844 L 258.257812 252.976562 C 262.484375 252.976562 264.296875 257.554688 264.492188 258.070312 Z M 275 77.726562 L 270.019531 77.726562 C 270.019531 77.726562 270.019531 72.316406 270.019531 71.210938 C 270.019531 70.105469 272.511719 69.03125 272.511719 69.03125 C 272.511719 69.03125 275 70.105469 275 71.210938 C 275 72.316406 275 77.726562 275 77.726562 Z M 283.320312 77.726562 L 278.339844 77.726562 C 278.339844 77.726562 278.339844 72.316406 278.339844 71.210938 C 278.339844 70.105469 280.839844 69.03125 280.839844 69.03125 C 280.839844 69.03125 283.320312 70.105469 283.320312 71.210938 C 283.320312 72.316406 283.320312 77.726562 283.320312 77.726562 Z M 283.320312 90.957031 L 278.339844 90.957031 C 278.339844 90.957031 278.339844 87.675781 278.339844 86.570312 C 278.339844 85.460938 280.839844 84.390625 280.839844 84.390625 C 280.839844 84.390625 283.320312 85.460938 283.320312 86.570312 C 283.320312 87.675781 283.320312 90.957031 283.320312 90.957031 Z M 283.765625 150.90625 L 277.886719 150.90625 C 277.886719 150.90625 277.886719 147.03125 277.886719 145.726562 C 277.886719 144.417969 280.832031 143.152344 280.832031 143.152344 C 280.832031 143.152344 283.765625 144.417969 283.765625 145.726562 C 283.765625 147.03125 283.765625 150.90625 283.765625 150.90625 Z M 288.980469 235.746094 C 288.980469 234.210938 292.445312 232.714844 292.445312 232.714844 C 292.445312 232.714844 295.90625 234.203125 295.90625 235.746094 C 295.90625 237.277344 295.90625 241.839844 295.90625 241.839844 L 288.980469 241.839844 C 288.980469 241.839844 288.980469 237.277344 288.980469 235.746094 Z M 288.980469 216.886719 C 288.980469 215.351562 292.445312 213.851562 292.445312 213.851562 C 292.445312 213.851562 295.90625 215.347656 295.90625 216.886719 C 295.90625 218.417969 295.90625 222.984375 295.90625 222.984375 L 288.980469 222.984375 C 288.980469 222.984375 288.980469 218.417969 288.980469 216.886719 Z M 287.714844 145.726562 C 287.714844 144.417969 290.652344 143.152344 290.652344 143.152344 C 290.652344 143.152344 293.589844 144.417969 293.589844 145.726562 C 293.589844 147.03125 293.589844 150.90625 293.589844 150.90625 L 287.714844 150.90625 C 287.714844 150.90625 287.714844 147.03125 287.714844 145.726562 Z M 286.664062 86.570312 C 286.664062 85.460938 289.148438 84.390625 289.148438 84.390625 C 289.148438 84.390625 291.636719 85.460938 291.636719 86.570312 C 291.636719 87.675781 291.636719 90.957031 291.636719 90.957031 L 286.664062 90.957031 C 286.664062 90.957031 286.664062 87.675781 286.664062 86.570312 Z M 286.664062 71.207031 C 286.664062 70.101562 289.148438 69.027344 289.148438 69.027344 C 289.148438 69.027344 291.636719 70.101562 291.636719 71.207031 C 291.636719 72.3125 291.636719 77.722656 291.636719 77.722656 L 286.664062 77.722656 C 286.664062 77.726562 286.664062 72.3125 286.664062 71.207031 Z M 277.421875 235.746094 C 277.421875 234.210938 280.882812 232.714844 280.882812 232.714844 C 280.882812 232.714844 284.34375 234.203125 284.34375 235.746094 C 284.34375 237.277344 284.34375 241.839844 284.34375 241.839844 L 277.421875 241.839844 C 277.421875 241.839844 277.421875 237.277344 277.421875 235.746094 Z M 277.421875 216.886719 C 277.421875 215.351562 280.882812 213.851562 280.882812 213.851562 C 280.882812 213.851562 284.34375 215.347656 284.34375 216.886719 C 284.34375 218.417969 284.34375 222.984375 284.34375 222.984375 L 277.421875 222.984375 C 277.421875 222.984375 277.421875 218.417969 277.421875 216.886719 Z M 275 90.957031 L 270.019531 90.957031 C 270.019531 90.957031 270.019531 87.675781 270.019531 86.570312 C 270.019531 85.460938 272.511719 84.390625 272.511719 84.390625 C 272.511719 84.390625 275 85.460938 275 86.570312 C 275 87.675781 275 90.957031 275 90.957031 Z M 273.945312 150.90625 L 268.066406 150.90625 C 268.066406 150.90625 268.066406 147.03125 268.066406 145.726562 C 268.066406 144.417969 271.011719 143.152344 271.011719 143.152344 C 271.011719 143.152344 273.945312 144.417969 273.945312 145.726562 C 273.945312 147.03125 273.945312 150.90625 273.945312 150.90625 Z M 265.859375 235.746094 C 265.859375 234.210938 269.324219 232.714844 269.324219 232.714844 C 269.324219 232.714844 272.785156 234.203125 272.785156 235.746094 C 272.785156 237.277344 272.785156 241.839844 272.785156 241.839844 L 265.859375 241.839844 C 265.859375 241.839844 265.859375 237.277344 265.859375 235.746094 Z M 265.859375 216.886719 C 265.859375 215.351562 269.324219 213.851562 269.324219 213.851562 C 269.324219 213.851562 272.785156 215.347656 272.785156 216.886719 C 272.785156 218.417969 272.785156 222.984375 272.785156 222.984375 L 265.859375 222.984375 C 265.859375 222.984375 265.859375 218.417969 265.859375 216.886719 Z M 265.859375 216.886719 " fill-opacity="1" fill-rule="nonzero"/><path fill="#000000" d="M 265.109375 205.855469 L 265.109375 175.226562 L 109.867188 175.226562 L 109.867188 205.855469 L 117.269531 205.855469 C 117.269531 205.351562 117.269531 201.289062 117.269531 199.851562 C 117.269531 198.316406 120.730469 196.816406 120.730469 196.816406 C 120.730469 196.816406 124.191406 198.308594 124.191406 199.851562 C 124.191406 201.382812 124.191406 205.945312 124.191406 205.945312 L 117.941406 205.945312 L 117.941406 254.191406 L 116.726562 254.191406 C 113.496094 254.191406 111.960938 257.65625 111.660156 258.398438 L 111.660156 356.238281 L 146.414062 356.238281 L 146.414062 314.402344 C 146.414062 294.320312 166.53125 286.222656 175.117188 282.773438 C 175.882812 282.460938 176.554688 282.191406 177.097656 281.960938 C 183.59375 279.148438 187.0625 276.890625 187.214844 276.796875 L 187.488281 276.625 L 187.761719 276.808594 C 187.910156 276.898438 191.382812 279.160156 197.878906 281.964844 C 198.425781 282.195312 199.09375 282.46875 199.855469 282.78125 C 208.441406 286.230469 228.558594 294.320312 228.558594 314.410156 L 228.558594 356.238281 L 263.316406 356.238281 L 263.316406 258.398438 C 263.015625 257.65625 261.476562 254.191406 258.246094 254.191406 L 257.03125 254.191406 L 257.03125 205.945312 L 250.785156 205.945312 C 250.785156 205.945312 250.785156 201.382812 250.785156 199.851562 C 250.785156 198.316406 254.246094 196.816406 254.246094 196.816406 C 254.246094 196.816406 257.710938 198.308594 257.710938 199.851562 C 257.710938 201.289062 257.710938 205.351562 257.710938 205.855469 Z M 239.660156 178.035156 L 246.582031 178.035156 L 246.582031 186.175781 L 239.660156 186.175781 Z M 217.40625 178.035156 L 224.332031 178.035156 L 224.332031 186.175781 L 217.40625 186.175781 Z M 195.148438 178.035156 L 202.070312 178.035156 L 202.070312 186.175781 L 195.148438 186.175781 Z M 184.027344 178.035156 L 190.949219 178.035156 L 190.949219 186.175781 L 184.027344 186.175781 Z M 184.027344 199.851562 C 184.027344 198.316406 187.488281 196.816406 187.488281 196.816406 C 187.488281 196.816406 190.949219 198.308594 190.949219 199.851562 C 190.949219 201.382812 190.949219 205.945312 190.949219 205.945312 L 184.027344 205.945312 C 184.027344 205.945312 184.027344 201.382812 184.027344 199.851562 Z M 161.777344 178.035156 L 168.699219 178.035156 L 168.699219 186.175781 L 161.777344 186.175781 Z M 139.519531 178.035156 L 146.441406 178.035156 L 146.441406 186.175781 L 139.519531 186.175781 Z M 117.265625 186.171875 L 117.265625 178.03125 L 124.1875 178.03125 L 124.1875 186.171875 Z M 132.34375 351.5625 L 123.519531 351.5625 C 123.519531 351.5625 123.519531 342.464844 123.519531 340.75 C 123.519531 339.039062 127.933594 337.371094 127.933594 337.371094 C 127.933594 337.371094 132.34375 339.039062 132.34375 340.75 C 132.34375 342.464844 132.34375 351.5625 132.34375 351.5625 Z M 132.34375 323.171875 L 123.519531 323.171875 C 123.519531 323.171875 123.519531 314.070312 123.519531 312.359375 C 123.519531 310.644531 127.933594 308.980469 127.933594 308.980469 C 127.933594 308.980469 132.34375 310.644531 132.34375 312.359375 C 132.34375 314.070312 132.34375 323.171875 132.34375 323.171875 Z M 132.34375 296.550781 L 123.519531 296.550781 C 123.519531 296.550781 123.519531 291.453125 123.519531 289.75 C 123.519531 288.035156 127.933594 286.367188 127.933594 286.367188 C 127.933594 286.367188 132.34375 288.035156 132.34375 289.75 C 132.34375 291.453125 132.34375 296.550781 132.34375 296.550781 Z M 132.34375 273.9375 L 123.519531 273.9375 C 123.519531 273.9375 123.519531 268.847656 123.519531 267.132812 C 123.519531 265.417969 127.933594 263.753906 127.933594 263.753906 C 127.933594 263.753906 132.34375 265.417969 132.34375 267.132812 C 132.34375 268.847656 132.34375 273.9375 132.34375 273.9375 Z M 134.554688 245.34375 L 122.691406 245.34375 C 122.691406 245.34375 122.691406 236.292969 122.691406 233.246094 C 122.691406 230.203125 128.625 227.234375 128.625 227.234375 C 128.625 227.234375 134.554688 230.203125 134.554688 233.246094 C 134.554688 236.292969 134.554688 245.34375 134.554688 245.34375 Z M 135.316406 205.945312 L 128.394531 205.945312 C 128.394531 205.945312 128.394531 201.382812 128.394531 199.851562 C 128.394531 198.316406 131.847656 196.816406 131.847656 196.816406 C 131.847656 196.816406 135.316406 198.308594 135.316406 199.851562 C 135.316406 201.382812 135.316406 205.945312 135.316406 205.945312 Z M 135.316406 186.171875 L 128.394531 186.171875 L 128.394531 178.03125 L 135.316406 178.03125 Z M 139.519531 199.847656 C 139.519531 198.316406 142.980469 196.816406 142.980469 196.816406 C 142.980469 196.816406 146.441406 198.3125 146.441406 199.847656 C 146.441406 201.386719 146.441406 205.945312 146.441406 205.945312 L 139.519531 205.945312 C 139.519531 205.945312 139.519531 201.382812 139.519531 199.847656 Z M 154.175781 245.34375 L 142.3125 245.34375 C 142.3125 245.34375 142.3125 236.292969 142.3125 233.246094 C 142.3125 230.203125 148.242188 227.234375 148.242188 227.234375 C 148.242188 227.234375 154.175781 230.203125 154.175781 233.246094 C 154.175781 236.292969 154.175781 245.34375 154.175781 245.34375 Z M 157.570312 205.945312 L 150.648438 205.945312 C 150.648438 205.945312 150.648438 201.382812 150.648438 199.847656 C 150.648438 198.316406 154.109375 196.816406 154.109375 196.816406 C 154.109375 196.816406 157.570312 198.308594 157.570312 199.847656 C 157.570312 201.390625 157.570312 205.945312 157.570312 205.945312 Z M 157.570312 186.171875 L 150.648438 186.171875 L 150.648438 178.03125 L 157.570312 178.03125 Z M 161.777344 199.847656 C 161.777344 198.316406 165.242188 196.816406 165.242188 196.816406 C 165.242188 196.816406 168.699219 198.3125 168.699219 199.847656 C 168.699219 201.386719 168.699219 205.945312 168.699219 205.945312 L 161.777344 205.945312 C 161.777344 205.945312 161.777344 201.382812 161.777344 199.847656 Z M 173.800781 245.34375 L 161.9375 245.34375 C 161.9375 245.34375 161.9375 236.292969 161.9375 233.246094 C 161.9375 230.203125 167.871094 227.234375 167.871094 227.234375 C 167.871094 227.234375 173.800781 230.210938 173.800781 233.246094 C 173.800781 236.292969 173.800781 245.34375 173.800781 245.34375 Z M 179.828125 205.945312 L 172.90625 205.945312 C 172.90625 205.929688 172.90625 201.382812 172.90625 199.851562 C 172.90625 198.316406 176.359375 196.820312 176.359375 196.820312 C 176.359375 196.820312 179.828125 198.3125 179.828125 199.851562 C 179.828125 201.382812 179.828125 205.929688 179.828125 205.945312 Z M 179.828125 186.171875 L 172.90625 186.171875 L 172.90625 178.03125 L 179.828125 178.03125 Z M 193.421875 245.34375 L 181.554688 245.34375 C 181.554688 245.34375 181.554688 236.292969 181.554688 233.246094 C 181.554688 230.203125 187.488281 227.238281 187.488281 227.238281 C 187.488281 227.238281 193.421875 230.207031 193.421875 233.25 C 193.421875 236.296875 193.421875 245.34375 193.421875 245.34375 Z M 195.148438 205.945312 C 195.148438 205.929688 195.148438 201.382812 195.148438 199.851562 C 195.148438 198.316406 198.617188 196.820312 198.617188 196.820312 C 198.617188 196.820312 202.070312 198.3125 202.070312 199.851562 C 202.070312 201.382812 202.070312 205.929688 202.070312 205.945312 Z M 213.039062 245.34375 L 201.175781 245.34375 C 201.175781 245.34375 201.175781 236.292969 201.175781 233.246094 C 201.175781 230.203125 207.105469 227.234375 207.105469 227.234375 C 207.105469 227.234375 213.039062 230.203125 213.039062 233.246094 C 213.039062 236.292969 213.039062 245.34375 213.039062 245.34375 Z M 213.199219 205.945312 L 206.277344 205.945312 C 206.277344 205.945312 206.277344 201.382812 206.277344 199.847656 C 206.277344 198.316406 209.734375 196.816406 209.734375 196.816406 C 209.734375 196.816406 213.199219 198.3125 213.199219 199.847656 C 213.199219 201.386719 213.199219 205.945312 213.199219 205.945312 Z M 213.199219 186.171875 L 206.277344 186.171875 L 206.277344 178.03125 L 213.199219 178.03125 Z M 217.40625 205.945312 C 217.40625 205.945312 217.40625 201.382812 217.40625 199.847656 C 217.40625 198.316406 220.871094 196.816406 220.871094 196.816406 C 220.871094 196.816406 224.332031 198.308594 224.332031 199.847656 C 224.332031 201.390625 224.332031 205.945312 224.332031 205.945312 Z M 232.664062 245.34375 L 220.800781 245.34375 C 220.800781 245.34375 220.800781 236.292969 220.800781 233.246094 C 220.800781 230.203125 226.734375 227.234375 226.734375 227.234375 C 226.734375 227.234375 232.664062 230.203125 232.664062 233.246094 C 232.664062 236.292969 232.664062 245.34375 232.664062 245.34375 Z M 235.449219 205.945312 L 228.527344 205.945312 C 228.527344 205.945312 228.527344 201.382812 228.527344 199.847656 C 228.527344 198.316406 231.992188 196.816406 231.992188 196.816406 C 231.992188 196.816406 235.449219 198.3125 235.449219 199.847656 C 235.449219 201.386719 235.449219 205.945312 235.449219 205.945312 Z M 235.449219 186.171875 L 228.527344 186.171875 L 228.527344 178.03125 L 235.449219 178.03125 Z M 239.660156 199.851562 C 239.660156 198.316406 243.125 196.816406 243.125 196.816406 C 243.125 196.816406 246.582031 198.308594 246.582031 199.851562 C 246.582031 201.382812 246.582031 205.945312 246.582031 205.945312 L 239.660156 205.945312 C 239.660156 205.945312 239.660156 201.382812 239.660156 199.851562 Z M 251.457031 351.5625 L 242.632812 351.5625 C 242.632812 351.5625 242.632812 342.464844 242.632812 340.75 C 242.632812 339.039062 247.042969 337.371094 247.042969 337.371094 C 247.042969 337.371094 251.457031 339.039062 251.457031 340.75 C 251.457031 342.464844 251.457031 351.5625 251.457031 351.5625 Z M 251.457031 323.171875 L 242.632812 323.171875 C 242.632812 323.171875 242.632812 314.070312 242.632812 312.359375 C 242.632812 310.644531 247.042969 308.980469 247.042969 308.980469 C 247.042969 308.980469 251.457031 310.644531 251.457031 312.359375 C 251.457031 314.070312 251.457031 323.171875 251.457031 323.171875 Z M 251.457031 296.550781 L 242.632812 296.550781 C 242.632812 296.550781 242.632812 291.453125 242.632812 289.75 C 242.632812 288.035156 247.042969 286.367188 247.042969 286.367188 C 247.042969 286.367188 251.457031 288.035156 251.457031 289.75 C 251.457031 291.453125 251.457031 296.550781 251.457031 296.550781 Z M 251.457031 273.9375 L 242.632812 273.9375 C 242.632812 273.9375 242.632812 268.847656 242.632812 267.132812 C 242.632812 265.417969 247.042969 263.753906 247.042969 263.753906 C 247.042969 263.753906 251.457031 265.417969 251.457031 267.132812 C 251.457031 268.847656 251.457031 273.9375 251.457031 273.9375 Z M 252.28125 233.246094 C 252.28125 236.292969 252.28125 245.34375 252.28125 245.34375 L 240.417969 245.34375 C 240.417969 245.34375 240.417969 236.292969 240.417969 233.246094 C 240.417969 230.203125 246.351562 227.234375 246.351562 227.234375 C 246.351562 227.234375 252.28125 230.214844 252.28125 233.246094 Z M 250.789062 186.171875 L 250.789062 178.03125 L 257.710938 178.03125 L 257.710938 186.171875 Z M 250.789062 186.171875 " fill-opacity="1" fill-rule="nonzero"/><path fill="#000000" d="M 253.582031 173.214844 L 253.582031 145.316406 L 256.738281 145.316406 L 256.738281 136.90625 L 254.644531 136.90625 C 254.644531 136.90625 254.644531 134.21875 254.644531 133.316406 C 254.644531 132.414062 256.683594 131.535156 256.683594 131.535156 L 256.691406 131.535156 L 256.691406 131.539062 C 256.691406 131.539062 256.730469 131.558594 256.738281 131.558594 L 256.738281 127.882812 L 252.972656 127.882812 L 252.972656 110.335938 C 253.660156 109.21875 257.886719 101.511719 249.644531 94.957031 L 249.191406 94.667969 C 247.527344 93.644531 243.632812 91.238281 243.632812 88.539062 L 243.632812 77.871094 L 242.632812 77.871094 L 242.632812 88.539062 C 242.632812 91.183594 238.9375 93.5 237.152344 94.609375 L 236.636719 94.925781 C 228.375 101.511719 232.554688 109.21875 233.238281 110.332031 L 233.238281 127.878906 L 229.5 127.878906 L 229.5 131.546875 C 229.589844 131.589844 231.503906 132.433594 231.503906 133.316406 C 231.503906 134.21875 231.503906 136.90625 231.503906 136.90625 L 229.5 136.90625 L 229.5 145.316406 L 232.667969 145.316406 L 232.667969 173.214844 M 238.316406 126.082031 L 234.25 126.082031 C 234.25 126.082031 234.25 121.65625 234.25 120.753906 C 234.25 119.851562 236.28125 118.972656 236.28125 118.972656 C 236.28125 118.972656 238.316406 119.847656 238.316406 120.753906 C 238.316406 121.65625 238.316406 126.082031 238.316406 126.082031 Z M 245.121094 126.082031 L 241.042969 126.082031 C 241.042969 126.082031 241.042969 121.65625 241.042969 120.753906 C 241.042969 119.851562 243.078125 118.972656 243.078125 118.972656 C 243.078125 118.972656 245.121094 119.847656 245.121094 120.753906 C 245.121094 121.65625 245.121094 126.082031 245.121094 126.082031 Z M 245.121094 136.90625 L 241.042969 136.90625 C 241.042969 136.90625 241.042969 134.21875 241.042969 133.316406 C 241.042969 132.414062 243.078125 131.535156 243.078125 131.535156 C 243.078125 131.535156 245.121094 132.410156 245.121094 133.316406 C 245.121094 134.222656 245.121094 136.90625 245.121094 136.90625 Z M 247.851562 133.316406 C 247.851562 132.414062 249.886719 131.535156 249.886719 131.535156 C 249.886719 131.535156 251.925781 132.410156 251.925781 133.316406 C 251.925781 134.222656 251.925781 136.90625 251.925781 136.90625 L 247.851562 136.90625 C 247.851562 136.90625 247.851562 134.21875 247.851562 133.316406 Z M 247.851562 120.753906 C 247.851562 119.851562 249.886719 118.972656 249.886719 118.972656 C 249.886719 118.972656 251.925781 119.847656 251.925781 120.753906 C 251.925781 121.65625 251.925781 126.082031 251.925781 126.082031 L 247.851562 126.082031 C 247.851562 126.082031 247.851562 121.65625 247.851562 120.753906 Z M 238.316406 136.90625 L 234.25 136.90625 C 234.25 136.90625 234.25 134.21875 234.25 133.316406 C 234.25 132.414062 236.28125 131.535156 236.28125 131.535156 C 236.28125 131.535156 238.316406 132.410156 238.316406 133.316406 C 238.316406 134.222656 238.316406 136.90625 238.316406 136.90625 Z M 238.316406 136.90625 " fill-opacity="1" fill-rule="nonzero"/><g fill="#000000" fill-opacity="1"><g transform="translate(316.791314, 347.650939)"><g><path d="M 9.59375 0 C 8.40625 0 7.4375 -0.40625 6.6875 -1.21875 C 5.945312 -2.039062 5.578125 -3.195312 5.578125 -4.6875 C 5.578125 -5.726562 5.800781 -6.914062 6.25 -8.25 L 60.234375 -160.375 C 60.972656 -162.3125 61.785156 -163.648438 62.671875 -164.390625 C 63.566406 -165.140625 64.984375 -165.515625 66.921875 -165.515625 L 110.859375 -165.515625 C 112.640625 -165.515625 114.238281 -164.957031 115.65625 -163.84375 C 117.070312 -162.726562 118.148438 -161.273438 118.890625 -159.484375 L 172.421875 -7.578125 C 172.722656 -6.390625 172.875 -5.5 172.875 -4.90625 C 172.875 -3.570312 172.578125 -2.421875 171.984375 -1.453125 C 171.390625 -0.484375 170.492188 0 169.296875 0 L 125.578125 0 C 123.054688 0 121.421875 -1.265625 120.671875 -3.796875 L 111.984375 -29.4375 C 111.535156 -30.476562 111.125 -31.1875 110.75 -31.5625 C 110.375 -31.9375 109.664062 -32.125 108.625 -32.125 L 61.34375 -32.125 C 59.5625 -32.125 58.445312 -31.304688 58 -29.671875 L 48.84375 -3.34375 C 47.957031 -1.113281 46.175781 0 43.5 0 Z M 97.484375 -70.046875 C 99.117188 -70.046875 99.9375 -70.785156 99.9375 -72.265625 C 99.9375 -72.566406 99.785156 -73.3125 99.484375 -74.5 L 86.109375 -112.640625 C 85.804688 -113.390625 85.359375 -113.765625 84.765625 -113.765625 C 84.171875 -113.765625 83.722656 -113.390625 83.421875 -112.640625 L 69.8125 -74.71875 C 69.519531 -74.125 69.375 -73.382812 69.375 -72.5 C 69.375 -70.863281 70.265625 -70.046875 72.046875 -70.046875 Z M 97.484375 -70.046875 "/></g></g></g><g fill="#000000" fill-opacity="1"><g transform="translate(495.021936, 347.650939)"><g><path d="M 85.875 -167.75 C 98.21875 -167.75 109.367188 -165.550781 119.328125 -161.15625 C 129.296875 -156.769531 137.476562 -150.710938 143.875 -142.984375 C 150.269531 -135.253906 154.429688 -126.40625 156.359375 -116.4375 C 156.804688 -114.65625 157.03125 -113.242188 157.03125 -112.203125 C 157.03125 -110.859375 156.769531 -109.960938 156.25 -109.515625 C 155.726562 -109.078125 154.800781 -108.78125 153.46875 -108.625 L 114.4375 -106.171875 C 112.945312 -106.171875 111.976562 -106.429688 111.53125 -106.953125 C 111.082031 -107.472656 110.632812 -108.628906 110.1875 -110.421875 C 108.851562 -117.554688 106.398438 -123.164062 102.828125 -127.25 C 99.265625 -131.34375 94.0625 -133.390625 87.21875 -133.390625 C 78.445312 -133.390625 71.679688 -129.519531 66.921875 -121.78125 C 62.160156 -114.050781 59.78125 -101.488281 59.78125 -84.09375 C 59.78125 -66.101562 61.972656 -53.316406 66.359375 -45.734375 C 70.742188 -38.148438 77.625 -34.359375 87 -34.359375 C 94.875 -34.359375 101.597656 -36.363281 107.171875 -40.375 C 112.753906 -44.382812 117.40625 -51.078125 121.125 -60.453125 C 121.570312 -61.785156 122.835938 -62.453125 124.921875 -62.453125 C 125.953125 -62.453125 126.769531 -62.378906 127.375 -62.234375 L 155.25 -56.65625 C 157.476562 -55.914062 158.59375 -54.207031 158.59375 -51.53125 C 158.59375 -47.363281 156.023438 -40.929688 150.890625 -32.234375 C 145.765625 -23.535156 137.738281 -15.613281 126.8125 -8.46875 C 115.882812 -1.332031 102.09375 2.234375 85.4375 2.234375 C 69.664062 2.234375 55.832031 -1.519531 43.9375 -9.03125 C 32.039062 -16.539062 22.859375 -26.875 16.390625 -40.03125 C 9.921875 -53.195312 6.6875 -68.179688 6.6875 -84.984375 C 6.6875 -101.640625 9.921875 -116.210938 16.390625 -128.703125 C 22.859375 -141.191406 32.078125 -150.820312 44.046875 -157.59375 C 56.023438 -164.363281 69.96875 -167.75 85.875 -167.75 Z M 85.875 -167.75 "/></g></g></g><g fill="#000000" fill-opacity="1"><g transform="translate(659.42243, 347.650939)"><g><path d="M 166.1875 -6.921875 C 166.78125 -5.722656 167.078125 -4.53125 167.078125 -3.34375 C 167.078125 -1.113281 165.738281 0 163.0625 0 L 119.5625 0 C 115.539062 0 112.863281 -1.488281 111.53125 -4.46875 L 84.3125 -66.46875 C 83.71875 -67.363281 83.125 -67.8125 82.53125 -67.8125 C 81.789062 -67.8125 80.75 -66.992188 79.40625 -65.359375 L 63.578125 -45.0625 C 62.679688 -44.019531 62.234375 -42.382812 62.234375 -40.15625 L 62.234375 -6.46875 C 62.234375 -4.09375 61.640625 -2.421875 60.453125 -1.453125 C 59.265625 -0.484375 57.40625 0 54.875 0 L 17.625 0 C 15.394531 0 13.832031 -0.441406 12.9375 -1.328125 C 12.039062 -2.222656 11.59375 -3.640625 11.59375 -5.578125 L 11.59375 -160.375 C 11.59375 -162.007812 11.960938 -163.273438 12.703125 -164.171875 C 13.453125 -165.066406 14.5 -165.515625 15.84375 -165.515625 L 58.21875 -165.515625 C 60.894531 -165.515625 62.234375 -163.953125 62.234375 -160.828125 L 62.234375 -104.390625 C 62.234375 -102.609375 62.601562 -101.71875 63.34375 -101.71875 C 63.9375 -101.71875 64.679688 -102.238281 65.578125 -103.28125 L 106.625 -160.828125 C 107.957031 -162.609375 109.253906 -163.832031 110.515625 -164.5 C 111.785156 -165.175781 113.6875 -165.515625 116.21875 -165.515625 L 150.125 -165.515625 C 151.90625 -165.515625 153.316406 -165.175781 154.359375 -164.5 C 155.398438 -163.832031 155.921875 -162.90625 155.921875 -161.71875 C 155.921875 -160.675781 155.550781 -159.785156 154.8125 -159.046875 L 118.21875 -114.203125 C 117.175781 -113.015625 116.65625 -111.753906 116.65625 -110.421875 C 116.65625 -109.378906 116.953125 -108.257812 117.546875 -107.0625 Z M 166.1875 -6.921875 "/></g></g></g><g clip-path="url(#fb0398c19a)"><path stroke-linecap="butt" transform="matrix(0.721971, 0, 0, 0.721971, 836.624674, 112.288257)" fill="none" stroke-linejoin="miter" d="M 37.127528 103.850881 C 37.127528 99.127486 39.091551 96.763083 43.014187 96.763083 L 209.869607 96.763083 C 213.537948 96.763083 215.377529 98.921885 215.377529 103.250312 L 215.07454 139.07886 C 215.07454 144.662529 212.407147 147.454364 207.077772 147.454364 L 114.373704 147.454364 C 109.644898 147.454364 107.280495 149.385924 107.280495 153.259866 L 107.280495 179.511771 C 107.280495 181.573184 107.783675 183.180112 108.790034 184.337966 C 109.845088 185.49582 111.203132 186.074747 112.864165 186.074747 L 168.457389 186.074747 C 172.780405 186.074747 174.944618 188.109107 174.944618 192.183239 L 174.944618 230.500632 C 174.944618 234.022888 173.083395 235.781312 169.360948 235.781312 L 112.182438 235.781312 C 110.7757 235.781312 109.596203 236.208744 108.638539 237.063608 C 107.73498 237.869777 107.280495 238.876136 107.280495 240.082685 L 107.280495 271.00929 C 107.280495 272.670324 107.53479 273.801125 108.03797 274.407105 C 108.54115 275.007674 109.520456 275.310664 110.975889 275.310664 L 211.379146 275.310664 C 215.902351 275.310664 218.169364 277.269277 218.169364 281.191913 L 218.169364 319.211727 C 218.169364 321.27314 217.536332 322.934173 216.281088 324.189417 C 215.07454 325.395966 213.240369 326.001945 210.773166 326.001945 L 45.503032 326.001945 C 42.386566 326.001945 40.1953 325.395966 38.940056 324.189417 C 37.733507 322.934173 37.127528 320.97015 37.127528 318.308168 Z M 444.946434 316.116902 C 445.346814 316.923071 445.552414 318.053873 445.552414 319.514716 C 445.552414 321.37594 444.973487 322.934173 443.815633 324.189417 C 442.706474 325.395966 441.25104 326.001945 439.438512 326.001945 L 379.473577 326.001945 C 375.145151 326.001945 372.353316 323.837732 371.098073 319.514716 L 342.059743 239.779695 C 341.453764 238.124072 340.420352 236.890471 338.964919 236.084301 C 337.55818 235.278132 335.393967 234.877753 332.47769 234.877753 L 318.296683 234.877753 C 317.04144 234.877753 316.110828 235.278132 315.504849 236.084301 C 314.904279 236.890471 314.60129 237.620893 314.60129 238.270157 L 314.60129 317.025871 C 314.60129 320.342528 313.768068 322.679878 312.112445 324.037922 C 310.451411 325.347271 307.886818 326.001945 304.418667 326.001945 L 252.445089 326.001945 C 249.377317 326.001945 247.261799 325.395966 246.109355 324.189417 C 245.000196 322.934173 244.448322 320.97015 244.448322 318.308168 L 244.448322 103.850881 C 244.448322 99.127486 246.406935 96.763083 250.329571 96.763083 L 353.524662 96.763083 C 383.396214 96.763083 406.553294 102.471195 422.995903 113.887419 C 439.492617 125.298233 447.738269 141.41621 447.738269 162.23594 C 447.738269 176.471051 443.967128 189.142519 436.424845 200.255753 C 428.931257 211.368988 419.224762 219.187208 407.305358 223.715823 C 406.050114 224.365087 405.422492 225.398499 405.422492 226.805238 C 405.422492 227.411217 405.622682 228.341829 406.023062 229.597073 Z M 350.732827 188.790835 C 358.5781 188.790835 364.610844 186.805169 368.83647 182.828427 C 373.062096 178.808402 375.172204 173.376227 375.172204 166.537313 C 375.172204 158.940925 372.634664 153.032624 367.554174 148.812408 C 362.522378 144.586782 356.289444 142.471264 348.844551 142.471264 L 321.689088 142.471264 C 319.027105 142.471264 317.165882 142.952801 316.110828 143.905055 C 315.104469 144.814024 314.60129 146.3939 314.60129 148.660913 L 314.60129 182.303606 C 314.60129 184.565208 314.952974 186.226242 315.656343 187.281296 C 316.359713 188.287655 317.744809 188.790835 319.806222 188.790835 Z M 469.98638 326.001945 C 468.325346 326.001945 466.967303 325.44466 465.912249 324.340912 C 464.90589 323.183058 464.40271 321.576129 464.40271 319.514716 C 464.40271 318.053873 464.732753 316.392839 465.382016 314.531616 L 540.139348 103.850881 C 541.145707 101.188899 542.276508 99.349318 543.531752 98.348369 C 544.786995 97.287905 546.751019 96.763083 549.413001 96.763083 L 610.286905 96.763083 C 612.754108 96.763083 614.967016 97.5422 616.925628 99.100433 C 618.889652 100.609972 620.372138 102.595637 621.378497 105.05743 L 695.529848 315.516333 C 695.930228 317.171956 696.130417 318.405557 696.130417 319.211727 C 696.130417 321.07295 695.730038 322.679878 694.923869 324.037922 C 694.117699 325.347271 692.889508 326.001945 691.228475 326.001945 L 630.657561 326.001945 C 627.135304 326.001945 624.873701 324.238112 623.867342 320.721265 L 611.796443 285.190297 C 611.195874 283.783558 610.616947 282.825894 610.065073 282.322714 C 609.561893 281.77084 608.604229 281.494903 607.197491 281.494903 L 541.643476 281.494903 C 539.181683 281.494903 537.650502 282.625704 537.044523 284.887307 L 524.373055 321.397582 C 523.112401 324.465354 520.650609 326.001945 516.982267 326.001945 Z M 591.734188 228.996503 C 593.995791 228.996503 595.126592 227.963092 595.126592 225.901679 C 595.126592 225.501299 594.926402 224.467888 594.526023 222.806854 L 575.967895 170.005465 C 575.567516 168.950411 574.934484 168.420179 574.07962 168.420179 C 573.278861 168.420179 572.672881 168.950411 572.272502 170.005465 L 553.411384 222.509275 C 553.011005 223.310034 552.810815 224.343445 552.810815 225.598689 C 552.810815 227.860292 554.044417 228.996503 556.506209 228.996503 Z M 726.732391 326.001945 C 724.670978 326.001945 722.961249 325.347271 721.603206 324.037922 C 720.299267 322.679878 719.644593 321.07295 719.644593 319.211727 L 719.644593 104.75985 C 719.644593 102.492837 720.347962 100.609972 721.754701 99.100433 C 723.215544 97.5422 725.076768 96.763083 727.33837 96.763083 L 819.44187 96.763083 C 851.575024 96.763083 875.9116 101.865215 892.457009 112.074891 C 909.051113 122.230461 917.35087 137.320436 917.35087 157.333997 C 917.35087 168.247042 914.358846 177.472 908.374796 185.019693 C 902.439442 192.507871 891.95383 199.752574 876.917959 206.742982 C 876.51758 206.943172 876.31739 207.321909 876.31739 207.873784 C 876.31739 208.376963 876.51758 208.728648 876.917959 208.928837 C 893.614863 215.064382 905.458519 222.35778 912.448928 230.803621 C 919.439336 239.254874 922.93454 250.18956 922.93454 263.618503 C 922.93454 284.789917 914.834973 300.480462 898.641248 310.684727 C 882.501629 320.894402 857.759263 326.001945 824.41956 326.001945 Z M 824.41956 186.377737 C 831.610158 186.377737 837.366965 184.413714 841.68998 180.491077 C 846.018406 176.568441 848.177209 171.515003 848.177209 165.330764 C 848.177209 158.740736 845.688364 153.384308 840.710674 149.261482 C 835.781678 145.138656 829.624492 143.077243 822.228294 143.077243 L 796.885358 143.077243 C 794.217966 143.077243 792.362153 143.55337 791.301689 144.511034 C 790.29533 145.414593 789.797561 146.999879 789.797561 149.261482 L 789.797561 179.511771 C 789.797561 182.027669 790.19794 183.813144 791.004109 184.868198 C 791.858974 185.874557 793.189965 186.377737 794.997083 186.377737 Z M 822.834274 279.682374 C 831.280115 279.682374 837.918839 277.323382 842.750445 272.594576 C 847.625335 267.817076 850.065485 262.233406 850.065485 255.848977 C 850.065485 249.459138 847.674029 244.205511 842.896529 240.082685 C 838.173134 235.959859 832.010537 233.898446 824.41956 233.898446 L 796.885358 233.898446 C 794.217966 233.898446 792.362153 234.423268 791.301689 235.483732 C 790.29533 236.484681 789.797561 238.124072 789.797561 240.385675 L 789.797561 272.821819 C 789.797561 275.332306 790.19794 277.117782 791.004109 278.178246 C 791.858974 279.179195 793.189965 279.682374 794.997083 279.682374 Z M 945.182651 326.001945 C 943.521617 326.001945 942.163574 325.44466 941.10852 324.340912 C 940.102161 323.183058 939.598981 321.576129 939.598981 319.514716 C 939.598981 318.053873 939.923613 316.392839 940.578287 314.531616 L 1015.330208 103.850881 C 1016.336567 101.188899 1017.467368 99.349318 1018.728023 98.348369 C 1019.983266 97.287905 1021.94729 96.763083 1024.609272 96.763083 L 1085.483176 96.763083 C 1087.950379 96.763083 1090.163287 97.5422 1092.121899 99.100433 C 1094.085923 100.609972 1095.568409 102.595637 1096.574768 105.05743 L 1170.720709 315.516333 C 1171.126499 317.171956 1171.326688 318.405557 1171.326688 319.211727 C 1171.326688 321.07295 1170.926309 322.679878 1170.12014 324.037922 C 1169.31397 325.347271 1168.080369 326.001945 1166.424746 326.001945 L 1105.848421 326.001945 C 1102.331575 326.001945 1100.069972 324.238112 1099.063613 320.721265 L 1086.992714 285.190297 C 1086.386735 283.783558 1085.813218 282.825894 1085.255933 282.322714 C 1084.752754 281.77084 1083.8005 281.494903 1082.393762 281.494903 L 1016.839747 281.494903 C 1014.377954 281.494903 1012.841363 282.625704 1012.240794 284.887307 L 999.569326 321.397582 C 998.308672 324.465354 995.84688 326.001945 992.173128 326.001945 Z M 1066.930459 228.996503 C 1069.192062 228.996503 1070.322863 227.963092 1070.322863 225.901679 C 1070.322863 225.501299 1070.122673 224.467888 1069.716883 222.806854 L 1051.164166 170.005465 C 1050.758376 168.950411 1050.130755 168.420179 1049.275891 168.420179 C 1048.469721 168.420179 1047.869152 168.950411 1047.468773 170.005465 L 1028.607655 222.509275 C 1028.207276 223.310034 1028.007086 224.343445 1028.007086 225.598689 C 1028.007086 227.860292 1029.235277 228.996503 1031.70248 228.996503 Z M 1239.645486 96.763083 C 1264.133557 96.763083 1279.369617 96.860472 1285.359077 97.066073 C 1325.537693 98.521506 1355.912424 109.385856 1376.477859 129.648301 C 1397.097399 149.916157 1407.404464 176.947178 1407.404464 210.741366 C 1407.404464 233.422319 1402.756817 253.408827 1393.4507 270.7063 C 1384.198689 288.009184 1370.39101 301.562569 1352.038483 311.366454 C 1333.73465 321.121645 1311.405382 326.001945 1285.056087 326.001945 L 1203.816938 326.001945 C 1200.69506 326.001945 1198.406405 325.298576 1196.950972 323.886427 C 1195.544233 322.430994 1194.835453 320.039538 1194.835453 316.722882 L 1194.835453 104.45686 C 1194.835453 101.589278 1195.441433 99.603613 1196.647982 98.494453 C 1197.903225 97.34201 1200.094491 96.763083 1203.210958 96.763083 Z M 1268.083246 145.263098 C 1267.028192 145.263098 1266.249075 145.566088 1265.745896 146.172068 C 1265.242716 146.772637 1264.988421 147.903438 1264.988421 149.564472 L 1264.988421 272.821819 C 1264.988421 274.683042 1265.291411 275.938286 1265.89739 276.59296 C 1266.49796 277.193529 1267.628761 277.496519 1269.289795 277.496519 L 1271.47565 277.496519 C 1291.846306 277.496519 1307.33125 272.194197 1317.941305 261.578732 C 1328.55677 250.968677 1333.859092 233.719899 1333.859092 209.832396 C 1333.859092 189.218267 1329.839067 173.879406 1321.788194 163.821226 C 1313.796837 153.714351 1302.077623 147.930491 1286.641373 146.469647 Z M 1268.083246 145.263098 " stroke="#000000" stroke-width="11.586375" stroke-opacity="1" stroke-miterlimit="4"/></g></svg>